<svg width="14" height="8" viewBox="0 0 14 8" fill="none" xmlns="http://www.w3.org/2000/svg">
<path d="M7.46187 6.17389C7.74901 6.06982 7.98435 5.97359 8.16787 5.8852C8.4891 5.73049 8.79901 5.55513 9.04165 5.3125C9.47915 4.875 8.16665 4.875 8.16665 2.6875C8.16665 1.22931 8.74983 0.5 9.91665 0.5C11.0835 0.5 11.6666 1.22931 11.6666 2.6875C11.6666 4.875 10.3541 4.875 10.7916 5.3125C11.6666 6.1875 13.4166 6.1875 13.4166 7.5M0.583313 7.5C0.583313 6.1875 2.33331 6.1875 3.20831 5.3125C3.64581 4.875 2.33331 4.875 2.33331 2.6875C2.33331 1.22931 2.9165 0.5 4.08331 0.5C5.25013 0.5 5.83331 1.22931 5.83331 2.6875C5.83331 4.875 4.52081 4.875 4.95831 5.3125C5.83331 6.1875 7.58331 6.1875 7.58331 7.5H0.583313Z" stroke="black" stroke-linecap="square"/>
</svg>
