<svg width="14" height="14" viewBox="0 0 14 14" fill="none" xmlns="http://www.w3.org/2000/svg">
<path d="M7.00002 12.8333C10.2217 12.8333 12.8334 10.2217 12.8334 7.00001C12.8334 3.77834 10.2217 1.16667 7.00002 1.16667C3.77836 1.16667 1.16669 3.77834 1.16669 7.00001C1.16669 10.2217 3.77836 12.8333 7.00002 12.8333Z" stroke="black" stroke-linecap="square"/>
<path d="M7.00002 12.8333C8.55558 11.4192 9.33335 9.47475 9.33335 7.00001C9.33335 4.52526 8.55558 2.58081 7.00002 1.16667C5.44446 2.58081 4.66669 4.52526 4.66669 7.00001C4.66669 9.47475 5.44446 11.4192 7.00002 12.8333Z" stroke="black" stroke-linecap="round"/>
<path d="M1.45831 8.75H12.5416M1.45831 5.25H12.5416H1.45831Z" stroke="black" stroke-linecap="round"/>
</svg>
